<svg width="21" height="24" viewBox="0 0 21 24" fill="none" xmlns="http://www.w3.org/2000/svg">
<path d="M19.8479 3.54769H15.5331V2.66077C15.5331 1.95509 15.2604 1.27831 14.7749 0.779321C14.2894 0.28033 13.6309 0 12.9443 0H7.76657C7.07996 0 6.42148 0.28033 5.93597 0.779321C5.45047 1.27831 5.17771 1.95509 5.17771 2.66077V3.54769H0.862952C0.634083 3.54769 0.414588 3.64114 0.252753 3.80747C0.0909181 3.9738 0 4.19939 0 4.43462C0 4.66984 0.0909181 4.89543 0.252753 5.06176C0.414588 5.2281 0.634083 5.32154 0.862952 5.32154H1.7259V21.2862C1.7259 21.7566 1.90774 22.2078 2.23141 22.5405C2.55508 22.8731 2.99407 23.06 3.45181 23.06H17.259C17.7168 23.06 18.1558 22.8731 18.4794 22.5405C18.8031 22.2078 18.985 21.7566 18.985 21.2862V5.32154H19.8479C20.0768 5.32154 20.2963 5.2281 20.4581 5.06176C20.6199 4.89543 20.7109 4.66984 20.7109 4.43462C20.7109 4.19939 20.6199 3.9738 20.4581 3.80747C20.2963 3.64114 20.0768 3.54769 19.8479 3.54769ZM6.90362 2.66077C6.90362 2.42554 6.99454 2.19995 7.15637 2.03362C7.31821 1.86729 7.5377 1.77385 7.76657 1.77385H12.9443C13.1732 1.77385 13.3926 1.86729 13.5545 2.03362C13.7163 2.19995 13.8072 2.42554 13.8072 2.66077V3.54769H6.90362V2.66077ZM17.259 21.2862H3.45181V5.32154H17.259V21.2862ZM8.62952 9.75615V16.8515C8.62952 17.0868 8.5386 17.3124 8.37677 17.4787C8.21494 17.645 7.99544 17.7385 7.76657 17.7385C7.5377 17.7385 7.31821 17.645 7.15637 17.4787C6.99454 17.3124 6.90362 17.0868 6.90362 16.8515V9.75615C6.90362 9.52093 6.99454 9.29533 7.15637 9.129C7.31821 8.96267 7.5377 8.86923 7.76657 8.86923C7.99544 8.86923 8.21494 8.96267 8.37677 9.129C8.5386 9.29533 8.62952 9.52093 8.62952 9.75615ZM13.8072 9.75615V16.8515C13.8072 17.0868 13.7163 17.3124 13.5545 17.4787C13.3926 17.645 13.1732 17.7385 12.9443 17.7385C12.7154 17.7385 12.4959 17.645 12.3341 17.4787C12.1722 17.3124 12.0813 17.0868 12.0813 16.8515V9.75615C12.0813 9.52093 12.1722 9.29533 12.3341 9.129C12.4959 8.96267 12.7154 8.86923 12.9443 8.86923C13.1732 8.86923 13.3926 8.96267 13.5545 9.129C13.7163 9.29533 13.8072 9.52093 13.8072 9.75615Z" fill="black" fill-opacity="0.6"/>
</svg>
